# xmcd
#
# Track frame offsets:
#  150
#  12929
#  31717
#  51820
#  66880
#  79050
#  91722
#  107051
#  126123
#  146365
#  165580
#  183097
#  198091
#  214949
#  229463
#  238997
#  251224
#
# Disc length: 3550 seconds
#
# Revision: 0
# Processed by: cddbd v1.5.1PL2 Copyright (c) Steve Scherf et al.
# Submitted via: Collectorz.com_Music_Collector 6.10
#
DISCID=e20ddc11
DTITLE=VARIOUS AUSTRALIAN ARTISTS - Toyota Muster Rural Aid Appeal Volumes 29,30,31,32 [CD4)
DYEAR=2005
DGENRE=AUSSIE ALTERNATIVE - AUSSIE BLUEGRASS - AUSSIE BLUES - AUSSIE BLUES ROCK - AUSSIE COUNTRY - AUSSIE FOLK-ROCK - AUSSIE INDEPENDENT ROCK - AUSSIE_Country Blues - AUSSIE_General Country - Country
TTITLE0=PAUL KELLY - Song Of The OLd Rake
TTITLE1=THE FLOOD - Wayside
TTITLE2=Andy Cowan - The Rivers Song
TTITLE3=Hirst and Greene - River Runs Both Ways
TTITLE4=Jan Preston - I Was Young Once
TTITLE5=Sereen Ryder - Again BY You
TTITLE6=FRuit - A Thousand Days
TTITLE7=Monsieur Camembert - Can I Have You Please
TTITLE8=PLOUGHBOYS - Wild Colonial Boy
TTITLE9=Paul Greene - This Way
TTITLE10=Nick Charles - Two Wells
TTITLE11=bella - Heart And All
TTITLE12=The Borderers - The Dark Horse
TTITLE13=Karl Broadie - To The Core
TTITLE14=Royden Donohue - We're Gonw
TTITLE15=Mo-Tunes - Heaven Must Have Sent You
TTITLE16=Diddley Daddies - I LIve On Your Doorstep
EXTD=
EXTT0=
EXTT1=
EXTT2=
EXTT3=
EXTT4=
EXTT5=
EXTT6=
EXTT7=
EXTT8=
EXTT9=
EXTT10=
EXTT11=
EXTT12=
EXTT13=
EXTT14=
EXTT15=
EXTT16=
PLAYORDER=
